<?xml version="1.0" encoding="utf-8"?>
<svg viewBox="0 0 32 32" xmlns="http://www.w3.org/2000/svg">
  <path fill="currentColor" fill-rule="evenodd" d="M 32 16.009 C 32 15.742 31.89 15.487 31.707 15.295 L 21.808 5.296 C 21.417 4.901 20.784 4.902 20.394 5.296 C 20.003 5.69 20.003 6.33 20.394 6.724 L 28.587 14.999 L 1 14.999 C 0.448 14.999 0 15.451 0 16.009 C 0 16.567 0.448 17.019 1 17.019 L 28.586 17.019 L 20.394 25.294 C 20.003 25.688 20.004 26.328 20.394 26.722 C 20.785 27.116 21.418 27.116 21.808 26.722 L 31.707 16.723 C 31.894 16.534 31.997 16.274 32 16.009 Z" clip-rule="evenodd" transform="matrix(0, -1, 1, 0, -0.008813, 32.008813)"/>
</svg>